<svg xmlns="http://www.w3.org/2000/svg" version="1.1" xmlnsXlink="http://www.w3.org/1999/xlink" width="100%" height="100%" viewBox="100 200 800 200"><rect width="1000" height="600" x="0" y="0" fill="#181d27"/><g><circle r="166.66666666666666" cx="501.20255533854163" cy="523.4248132301631" fill="#3f51b5" transform="matrix(0.3736519202479385,0,0,0.37365192024793853,0,104.42129631299014)"/><path d="M513.1894772424982 521.1860263918793L513.1894772424982 535.7382646915175L501.7777860972691 535.7382646915175L501.7777860972691 596.1860237823228L489.2155974796326 596.1860237823228L487.2255477976308 576.0367707520544Q480.7267918048436 585.6760738992507 468.7553991865514 592.0504517869127Q456.75291204197794 598.4248296745749 440.6459474282757 598.4248296745749L440.6459474282757 598.4248296745749Q410.63972956684205 598.4248296745749 392.0762973769189 576.9385120142115Q373.48177066071435 555.4521943538481 373.48177066071435 524.1089118623195L373.48177066071435 524.1089118623195Q373.48177066071435 503.05791756989396 382.56137233484765 485.92483358890956Q391.6098794826997 468.7917496079252 407.6235605175581 458.62383951394713Q423.6372415524164 448.42483489368783 444.4394796345917 448.42483489368783L444.4394796345917 448.42483489368783Q461.9146034046702 448.42483489368783 475.00539896908833 453.244486467286Q488.09619453350655 458.06413804088413 496.3984330506079 465.4335407695471L496.3984330506079 465.4335407695471L500.4096269408928 492.76562937079086L486.54146821944266 494.32035568485475L482.06385643493854 473.73577928664844Q476.03151833637054 469.69349087008226 467.3872400301751 466.4596601368293Q458.774056250261 463.19473487729505 445.3412208967487 463.19473487729505L445.3412208967487 463.19473487729505Q420.9320177659452 463.19473487729505 405.944456098369 479.9857790691854Q390.95689443079283 496.7768232610757 390.95689443079283 523.4248322841313L390.95689443079283 523.4248322841313Q390.95689443079283 550.5081646751248 405.2603765201809 567.0815471830463Q419.59495313585023 583.6549296909676 443.56883289871587 583.6549296909676L443.56883289871587 583.6549296909676Q463.46932971873406 583.6549296909676 474.44569749602533 572.8029400188015Q485.4220652733166 561.9198558203541 485.4220652733166 548.735776677092L485.4220652733166 548.735776677092L485.4220652733166 535.7382646915175L450.72057394340993 535.7382646915175L450.72057394340993 521.1860263918793L513.1894772424982 521.1860263918793ZM628.9233040614165 555.4521943538481L628.9233040614165 555.4521943538481Q628.9233040614165 576.4720941199923 614.0290259726842 587.4484618972836Q599.1658424102329 598.4248296745749 576.9954451716815 598.4248296745749L576.9954451716815 598.4248296745749Q546.55390394231 598.4248296745749 530.1981831183575 586.5467206351265L530.1981831183575 586.5467206351265L533.3387302727666 557.9086619300691L546.7715656262789 559.245726560164L545.8698243641218 577.5914970661183Q553.2703216190661 581.4161237987155 560.639724347729 582.7531884288105Q568.0402216026733 584.0902530589055 576.0937039095245 584.0902530589055L576.0937039095245 584.0902530589055Q590.4282805251937 584.0902530589055 600.844946829422 577.9335368552124Q611.230518607369 571.7768206515193 611.230518607369 557.006920667912L611.230518607369 557.006920667912Q611.230518607369 540.4335381599906 599.8188274621398 535.3962249024235Q588.4071363169107 530.3589116448563 574.9743009633985 527.2183644904474L574.9743009633985 527.2183644904474Q564.6820127642952 524.9795585981952 554.6073862491611 521.5280661809734Q544.5327597340269 518.0454792374702 537.8163420572707 510.55169840368205Q531.0999243805146 503.05791756989396 531.0999243805146 488.7233409542246L531.0999243805146 488.7233409542246Q531.0999243805146 468.1387645560184 544.8747995231208 458.28179972485304Q558.618580139446 448.42483489368783 577.4307685396194 448.42483489368783L577.4307685396194 448.42483489368783Q589.5265392630367 448.42483489368783 601.839971670423 451.7830437320659Q614.1534040778092 455.14125257044395 621.0874834385343 460.5206056171051L621.0874834385343 460.5206056171051L622.4245480686293 489.40742053241274L608.991712715117 490.7444851625078L606.752906822865 469.00941129189414Q599.8188274621398 465.4335407695471 592.6670864174458 464.22085424457725Q585.4842508464706 462.9770731933261 579.0165893799646 462.9770731933261L579.0165893799646 462.9770731933261Q565.3349978162021 462.9770731933261 556.939475720257 469.13378939701926Q548.5439536243118 475.2905056007123 548.5439536243118 486.9198584299105L548.5439536243118 486.9198584299105Q548.5439536243118 500.601449993673 558.618580139446 505.296723462146Q568.6932066545801 509.99199693061905 581.0066390619664 512.9148824010592L581.0066390619664 512.9148824010592Q590.8636038931317 515.1536882933112 601.964349775548 518.6051807105332Q613.0340011316832 522.0877676540364 620.9941998596905 530.4832897499815Q628.9233040614165 538.8788118459267 628.9233040614165 555.4521943538481Z " fill="#181d27" transform="matrix(0.3736519202479385,0,0,0.37365192024793853,0,104.42129631299014)"/><path d="M885.2952470028418 524.2903285665175L885.2952470028418 538.2576976505303L874.3422032980711 538.2576976505303L874.3422032980711 596.2759999995063L862.2849017811029 596.2759999995063L860.3748342140584 576.936565883181Q854.1372698154288 586.1884556610527 842.6470196074268 592.306640836742Q831.1269245936899 598.4248260124314 815.6673152229237 598.4248260124314L815.6673152229237 598.4248260124314Q786.867077688581 598.4248260124314 769.0497286647443 577.802065249498Q751.2025348351724 557.1793044865647 751.2025348351724 527.0957403056141L751.2025348351724 527.0957403056141Q751.2025348351724 506.89080682297174 759.9172181098129 490.4463188629482Q768.6020565787182 474.00183090292467 783.9721315322793 464.24257942755673Q799.3422064858403 454.4534831464538 819.3083815226021 454.4534831464538L819.3083815226021 454.4534831464538Q836.0811623457114 454.4534831464538 848.6458255601759 459.0794280353897Q861.2104887746403 463.7053729243255 869.1790519059041 470.7785918835371L869.1790519059041 470.7785918835371L873.0290318457281 497.0121761246636L859.7182484878869 498.5044164114171L855.4205964620368 478.7471550148008Q849.6307041494332 474.8673302692417 841.3338481550837 471.76347047279444Q833.0668369664694 468.629765870612 820.1738808889191 468.629765870612L820.1738808889191 468.629765870612Q796.7457083868892 468.629765870612 782.3605120225855 484.7459609675499Q767.9753156582817 500.86215606448764 767.9753156582817 526.4391545794426L767.9753156582817 526.4391545794426Q767.9753156582817 552.4339803746885 781.703926296414 568.3412618314808Q795.4623817402812 584.2485432882731 818.4727269620201 584.2485432882731L818.4727269620201 584.2485432882731Q837.5734026324649 584.2485432882731 848.1086190569447 573.8327060867337Q858.6438354814244 563.3870240794593 858.6438354814244 550.7328264477895L858.6438354814244 550.7328264477895L858.6438354814244 538.2576976505303L825.3370322810863 538.2576976505303L825.3370322810863 524.2903285665175L885.2952470028418 524.2903285665175ZM943.9402902722543 584.0396296481276L943.9402902722543 596.2759999995063L895.3827913412955 596.2759999995063L895.3827913412955 584.0396296481276L912.1555721644048 584.0396296481276L912.1555721644048 460.69104754508345L895.17387770115 460.69104754508345L895.17387770115 448.4248323879697L927.1973542548801 448.4248323879697L927.1973542548801 584.0396296481276L943.9402902722543 584.0396296481276ZM1029.057676228674 565.9835221784103L1041.7118738603435 568.7590891117718Q1039.801806293299 581.0253042688855 1029.475503508965 589.7101427377909Q1019.1492007246306 598.4248260124314 1001.5407653409393 598.4248260124314L1001.5407653409393 598.4248260124314Q981.335831858297 598.4248260124314 968.8905478667727 585.7407835750266Q956.4154190695135 573.0567411376219 956.4154190695135 549.8673270814725L956.4154190695135 549.8673270814725Q956.4154190695135 527.5135675859051 968.2339621406013 513.1283712216014Q980.052505211689 498.7133300515626 1000.2574386943313 498.7133300515626L1000.2574386943313 498.7133300515626Q1020.0147000909477 498.7133300515626 1030.341002875282 511.1884588488218Q1040.637460853881 523.633742840346 1040.8762192997615 540.6154373036009L1040.8762192997615 540.6154373036009Q1040.8762192997615 546.1964159760589 1039.5630478474186 552.0161530943976L1039.5630478474186 552.0161530943976L972.3227005263059 552.0161530943976Q973.6060271729139 585.5318699348811 1002.6151783474019 585.5318699348811L1002.6151783474019 585.5318699348811Q1014.0158941381986 585.5318699348811 1020.4623721769738 580.1598049025686Q1026.9088502157488 574.7877398702559 1029.057676228674 565.9835221784103L1029.057676228674 565.9835221784103ZM972.5316141664514 540.8243509437464L1024.9689378429694 540.8243509437464Q1026.0433508494318 530.080220879121 1019.9251656737424 520.6492622668391Q1013.7771356923181 511.1884588488218 999.8097666083054 511.1884588488218L999.8097666083054 511.1884588488218Q986.4989832504641 511.1884588488218 980.2614188518345 519.9926765406675Q974.0238544532049 528.7968942325131 972.5316141664514 540.8243509437464L972.5316141664514 540.8243509437464ZM1170.4325209957003 584.0396296481276L1170.4325209957003 596.2759999995063L1122.083935704887 596.2759999995063L1122.083935704887 584.0396296481276L1138.6478028878507 584.0396296481276L1138.6478028878507 539.5410242971383Q1138.6478028878507 524.0814149263721 1132.4102384892212 517.7244713048021Q1126.1726740905915 511.39737248896733 1116.5029570324289 511.39737248896733L1116.5029570324289 511.39737248896733Q1103.6100009548786 511.39737248896733 1095.760817046555 519.8732973177272Q1087.911633138232 528.3790669522222 1087.493805857941 539.3321106569929L1087.493805857941 539.3321106569929L1087.493805857941 584.0396296481276L1104.2665866810503 584.0396296481276L1104.2665866810503 596.2759999995063L1055.6792429443562 596.2759999995063L1055.6792429443562 584.0396296481276L1072.4520237674656 584.0396296481276L1072.4520237674656 512.8896127757208L1055.2614156640652 512.8896127757208L1055.2614156640652 500.6532424243421L1087.493805857941 500.6532424243421L1087.493805857941 517.634936887597Q1097.820108642275 498.7133300515626 1121.0095226984245 498.7133300515626L1121.0095226984245 498.7133300515626Q1134.9768917824372 498.7133300515626 1144.4376952004543 507.30863410326276Q1153.8984986184714 515.9039381549628 1153.8984986184714 535.0344586311428L1153.8984986184714 535.0344586311428L1153.8984986184714 584.0396296481276L1170.4325209957003 584.0396296481276ZM1313.1205372150698 582.517544555639L1313.1205372150698 596.2759999995063L1263.4886252776485 596.2759999995063L1263.4886252776485 582.517544555639L1282.1714736678023 582.517544555639L1272.0839293293486 555.657219394076L1212.3346282477385 555.657219394076L1201.5904981831134 582.517544555639L1221.7954316657556 582.517544555639L1221.7954316657556 596.2759999995063L1172.5813470086252 596.2759999995063L1172.5813470086252 582.517544555639L1185.683216726321 582.517544555639L1231.4651487239184 470.36076460324614L1209.111389228351 470.36076460324614L1209.111389228351 456.6023091593789L1248.8646704674643 456.6023091593789L1298.9442544909116 582.517544555639L1313.1205372150698 582.517544555639ZM1217.0799523596147 543.4208490426975L1267.577363663353 543.4208490426975L1243.4926054351517 479.3738959352372L1242.2092787885435 479.3738959352372L1217.0799523596147 543.4208490426975ZM1416.9207715616433 557.1793044865647L1416.9207715616433 557.1793044865647Q1416.9207715616433 577.354393163472 1402.6251096145445 587.8896095879517Q1388.3294476674462 598.4248260124314 1367.050101178341 598.4248260124314L1367.050101178341 598.4248260124314Q1337.8320363637076 598.4248260124314 1322.133668547061 587.0241102216346L1322.133668547061 587.0241102216346L1325.1479939263031 559.5370441396352L1338.0409500038531 560.8203707862432L1337.1754506375362 578.4288061699344Q1344.2785144024829 582.0997172753481 1351.3815781674296 583.3830439219561Q1358.454797126641 584.6663705685642 1366.1846018120243 584.6663705685642L1366.1846018120243 584.6663705685642Q1379.9430572558915 584.6663705685642 1389.94106717714 578.7570990330203Q1399.9390770983885 572.8478274974764 1399.9390770983885 558.6715447733181L1399.9390770983885 558.6715447733181Q1399.9390770983885 542.7642633165258 1388.9860333936178 537.9294047874446Q1378.003144883112 533.0945462583632 1365.1101888055616 530.080220879121L1365.1101888055616 530.080220879121Q1355.2315581072535 527.9313948661961 1345.561841049091 524.6186214296033Q1335.8921239909282 521.2760031872755 1329.445645952153 514.0834050051236Q1322.9991679133782 506.89080682297174 1322.9991679133782 493.1323513791045L1322.9991679133782 493.1323513791045Q1322.9991679133782 473.3750899824882 1336.220416854014 463.914286564471Q1349.44166579465 454.4534831464538 1367.4977732643672 454.4534831464538L1367.4977732643672 454.4534831464538Q1379.0775578895743 454.4534831464538 1390.8961009606621 457.6767221658414Q1402.71464403175 460.8999611852289 1409.3998805164053 466.06311257739605L1409.3998805164053 466.06311257739605L1410.6832071630135 493.78893710527603L1397.7902510854633 495.07226375188407L1395.6414250725381 474.2107445430702Q1388.9860333936178 470.7785918835371 1382.0918832688164 469.6146444598694Q1375.2275779497504 468.42085223046655 1368.990013551121 468.42085223046655L1368.990013551121 468.42085223046655Q1355.8881438334251 468.42085223046655 1347.830046284956 474.3301237660104Q1339.7719487364873 480.2393953015543 1339.7719487364873 491.40135264647046L1339.7719487364873 491.40135264647046Q1339.7719487364873 504.53306716990124 1349.44166579465 509.0396328358968Q1359.1113828528125 513.5461985018924 1370.9299259239003 516.351610240989L1370.9299259239003 516.351610240989Q1380.3907293419177 518.5004362539139 1391.0154801836024 521.8132096905067Q1401.6402310252872 525.1558279328347 1409.2805012934652 533.2139254813035Q1416.9207715616433 541.2720230297723 1416.9207715616433 557.1793044865647ZM1465.030598406576 475.9417432757042L1448.7054896694929 475.9417432757042L1448.7054896694929 456.39339551923337L1465.030598406576 456.39339551923337L1465.030598406576 475.9417432757042ZM1482.0122928698308 584.0396296481276L1482.0122928698308 596.2759999995063L1433.454793938872 596.2759999995063L1433.454793938872 584.0396296481276L1450.2275747619813 584.0396296481276L1450.2275747619813 512.8896127757208L1433.036966658581 512.8896127757208L1433.036966658581 500.6532424243421L1465.2693568524567 500.6532424243421L1465.2693568524567 584.0396296481276L1482.0122928698308 584.0396296481276ZM1669.8256553606261 584.0396296481276L1669.8256553606261 596.2759999995063L1624.043723363029 596.2759999995063L1624.043723363029 584.0396296481276L1638.0110924470414 584.0396296481276L1638.0110924470414 539.5410242971383Q1638.0110924470414 524.0814149263721 1631.8929072713522 517.7244713048021Q1625.7747220956628 511.39737248896733 1616.3139186776455 511.39737248896733L1616.3139186776455 511.39737248896733Q1603.21204895995 511.39737248896733 1596.1089851950035 521.2760031872755Q1589.0357662357917 531.1546338855836 1588.8268525956462 540.1976100233098L1588.8268525956462 540.1976100233098L1588.8268525956462 584.0396296481276L1605.3608749728749 584.0396296481276L1605.3608749728749 596.2759999995063L1559.817701421158 596.2759999995063L1559.817701421158 584.0396296481276L1573.5463120592906 584.0396296481276L1573.5463120592906 539.5410242971383Q1573.5463120592906 523.8725012862266 1567.5475061065415 517.634936887597Q1561.5188553480573 511.39737248896733 1552.2968103759206 511.39737248896733L1552.2968103759206 511.39737248896733Q1538.9561822123444 511.39737248896733 1531.972497670338 520.9477103241898Q1524.9888131283315 530.5278929651472 1524.5709858480407 539.7499379372838L1524.5709858480407 539.7499379372838L1524.5709858480407 584.0396296481276L1542.179421231732 584.0396296481276L1542.179421231732 596.2759999995063L1492.756422934456 596.2759999995063L1492.756422934456 584.0396296481276L1509.5292037575653 584.0396296481276L1509.5292037575653 512.8896127757208L1492.5475092943104 512.8896127757208L1492.5475092943104 500.6532424243421L1524.5709858480407 500.6532424243421L1524.5709858480407 518.5004362539139Q1529.2864651541815 509.90513220221385 1537.2550282854452 504.29430872402065Q1545.193746610974 498.7133300515626 1556.5944624017707 498.7133300515626L1556.5944624017707 498.7133300515626Q1567.756419746687 498.7133300515626 1576.0234309353011 504.29430872402065Q1584.2904421239157 509.90513220221385 1587.3047675031576 521.7236752733015L1587.3047675031576 521.7236752733015Q1591.6024195290076 511.6062861291128 1600.1081891635026 505.1598080903377Q1608.5841139922625 498.7133300515626 1621.0592427895217 498.7133300515626L1621.0592427895217 498.7133300515626Q1634.787853427654 498.7133300515626 1643.9203639825853 507.30863410326276Q1653.0528745375168 515.9039381549628 1653.0528745375168 535.0344586311428L1653.0528745375168 535.0344586311428L1653.0528745375168 584.0396296481276L1669.8256553606261 584.0396296481276ZM1774.0437169874901 548.345241988984L1774.0437169874901 548.345241988984Q1774.0437169874901 570.0722605641149 1761.1507609099401 584.2485432882731Q1748.2578048323899 598.4248260124314 1726.1129589769682 598.4248260124314L1726.1129589769682 598.4248260124314Q1704.415785207572 598.4248260124314 1692.0600356332532 584.6663705685642Q1679.7042860589343 570.9079151246968 1679.7042860589343 549.210741355301L1679.7042860589343 549.210741355301Q1679.7042860589343 528.3790669522222 1691.7317427701676 513.426819278952Q1703.7890442871358 498.5044164114171 1726.978458343285 498.5044164114171L1726.978458343285 498.5044164114171Q1750.406630845315 498.5044164114171 1762.2251739164028 513.2179056388065Q1774.0437169874901 527.9313948661961 1774.0437169874901 548.345241988984ZM1758.136435530698 548.1363283488384L1758.136435530698 548.1363283488384Q1758.136435530698 531.8112196117552 1749.8694243420837 521.6042960503612Q1741.6024131534693 511.39737248896733 1726.560631062994 511.39737248896733L1726.560631062994 511.39737248896733Q1711.5188489725188 511.39737248896733 1703.46075142405 521.932588913447Q1695.4026538755809 532.4678053379267 1695.4026538755809 548.345241988984L1695.4026538755809 548.345241988984Q1695.4026538755809 564.0436098056307 1703.3413722011098 574.7877398702559Q1711.3099353323735 585.5318699348811 1726.560631062994 585.5318699348811L1726.560631062994 585.5318699348811Q1741.8113267936149 585.5318699348811 1749.988803565024 574.9071190931962Q1758.136435530698 564.2525234457762 1758.136435530698 548.1363283488384ZM1903.1821914031382 584.0396296481276L1903.1821914031382 596.2759999995063L1854.8336061123248 596.2759999995063L1854.8336061123248 584.0396296481276L1871.3974732952886 584.0396296481276L1871.3974732952886 539.5410242971383Q1871.3974732952886 524.0814149263721 1865.1599088966589 517.7244713048021Q1858.9223444980296 511.39737248896733 1849.2526274398667 511.39737248896733L1849.2526274398667 511.39737248896733Q1836.3596713623167 511.39737248896733 1828.5104874539932 519.8732973177272Q1820.6613035456696 528.3790669522222 1820.2434762653786 539.3321106569929L1820.2434762653786 539.3321106569929L1820.2434762653786 584.0396296481276L1837.016257088488 584.0396296481276L1837.016257088488 596.2759999995063L1788.4289133517943 596.2759999995063L1788.4289133517943 584.0396296481276L1805.2016941749037 584.0396296481276L1805.2016941749037 512.8896127757208L1788.0110860715029 512.8896127757208L1788.0110860715029 500.6532424243421L1820.2434762653786 500.6532424243421L1820.2434762653786 517.634936887597Q1830.5697790497131 498.7133300515626 1853.7591931058626 498.7133300515626L1853.7591931058626 498.7133300515626Q1867.7265621898753 498.7133300515626 1877.1873656078922 507.30863410326276Q1886.6481690259095 515.9039381549628 1886.6481690259095 535.0344586311428L1886.6481690259095 535.0344586311428L1886.6481690259095 584.0396296481276L1903.1821914031382 584.0396296481276ZM1938.2199933361105 596.2759999995063L1917.3584741272964 596.2759999995063L1917.3584741272964 573.0567411376219L1938.2199933361105 573.0567411376219L1938.2199933361105 596.2759999995063ZM2027.8141001527904 561.2381980665341L2040.7070562303404 564.0436098056307Q2038.767143857561 576.5187386028899 2029.4257196624842 587.4717823076606Q2020.0842954674074 598.4248260124314 2000.3270340707911 598.4248260124314L2000.3270340707911 598.4248260124314Q1980.5399278684397 598.4248260124314 1968.721384797352 585.6512491578214Q1956.9028417262641 572.8478274974764 1956.9028417262641 549.8673270814725L1956.9028417262641 549.8673270814725Q1956.9028417262641 530.080220879121 1968.0946438769154 514.4116978682093Q1979.2566012218315 498.7133300515626 2001.6103607173989 498.7133300515626L2001.6103607173989 498.7133300515626Q2011.0711641354162 498.7133300515626 2019.0098824609447 500.86215606448764Q2026.9486007864732 503.0109820774127 2034.2605781915656 508.59196074987074L2034.2605781915656 508.59196074987074L2037.931489296979 531.6023059716097L2025.45636049972 533.0945462583632L2021.8152942000413 516.9783511614254Q2013.2199901483411 511.6062861291128 2001.4014470772534 511.6062861291128L2001.4014470772534 511.6062861291128Q1986.1209065408977 511.6062861291128 1979.465514861977 522.5593298338836Q1972.8101231830562 533.5422183443893 1972.8101231830562 549.0018277151555L1972.8101231830562 549.0018277151555Q1972.8101231830562 566.1924358185559 1980.3310142282942 575.8621528767185Q1987.8519052735317 585.5318699348811 2002.0281879976899 585.5318699348811L2002.0281879976899 585.5318699348811Q2023.5164481269405 585.5318699348811 2027.8141001527904 561.2381980665341L2027.8141001527904 561.2381980665341ZM2150.297182889518 548.345241988984L2150.297182889518 548.345241988984Q2150.297182889518 570.0722605641149 2137.4042268119674 584.2485432882731Q2124.511270734417 598.4248260124314 2102.39626968473 598.4248260124314L2102.39626968473 598.4248260124314Q2080.669251109599 598.4248260124314 2068.31350153528 584.6663705685642Q2055.957751960961 570.9079151246968 2055.957751960961 549.210741355301L2055.957751960961 549.210741355301Q2055.957751960961 528.3790669522222 2068.0150534779295 513.426819278952Q2080.0425101891624 498.5044164114171 2103.2319242453123 498.5044164114171L2103.2319242453123 498.5044164114171Q2126.6600967473423 498.5044164114171 2138.4786398184297 513.2179056388065Q2150.297182889518 527.9313948661961 2150.297182889518 548.345241988984ZM2134.3899014327253 548.1363283488384L2134.3899014327253 548.1363283488384Q2134.3899014327253 531.8112196117552 2126.1228902441107 521.6042960503612Q2117.855879055496 511.39737248896733 2102.8140969650212 511.39737248896733L2102.8140969650212 511.39737248896733Q2087.7723148745463 511.39737248896733 2079.7142173260772 521.932588913447Q2071.656119777608 532.4678053379267 2071.656119777608 548.345241988984L2071.656119777608 548.345241988984Q2071.656119777608 564.0436098056307 2079.5948381031367 574.7877398702559Q2087.5634012344008 585.5318699348811 2102.8140969650212 585.5318699348811L2102.8140969650212 585.5318699348811Q2118.0647926956417 585.5318699348811 2126.2422694670513 574.9071190931962Q2134.3899014327253 564.2525234457762 2134.3899014327253 548.1363283488384ZM2341.7516116799916 584.0396296481276L2341.7516116799916 596.2759999995063L2295.9995244881293 596.2759999995063L2295.9995244881293 584.0396296481276L2309.966893572142 584.0396296481276L2309.966893572142 539.5410242971383Q2309.966893572142 524.0814149263721 2303.848708396453 517.7244713048021Q2297.700678415028 511.39737248896733 2288.2697198027463 511.39737248896733L2288.2697198027463 511.39737248896733Q2275.1380052793156 511.39737248896733 2268.064786320104 521.2760031872755Q2260.9617225551565 531.1546338855836 2260.752808915012 540.1976100233098L2260.752808915012 540.1976100233098L2260.752808915012 584.0396296481276L2277.28683129224 584.0396296481276L2277.28683129224 596.2759999995063L2231.7436577405233 596.2759999995063L2231.7436577405233 584.0396296481276L2245.5021131843905 584.0396296481276L2245.5021131843905 539.5410242971383Q2245.5021131843905 523.8725012862266 2239.4734624259063 517.634936887597Q2233.4746564731577 511.39737248896733 2224.222766695286 511.39737248896733L2224.222766695286 511.39737248896733Q2210.9119833374443 511.39737248896733 2203.9282987954384 520.9477103241898Q2196.9446142534316 530.5278929651472 2196.496942167406 539.7499379372838L2196.496942167406 539.7499379372838L2196.496942167406 584.0396296481276L2214.135222356832 584.0396296481276L2214.135222356832 596.2759999995063L2164.7122240595563 596.2759999995063L2164.7122240595563 584.0396296481276L2181.455160076931 584.0396296481276L2181.455160076931 512.8896127757208L2164.473465613676 512.8896127757208L2164.473465613676 500.6532424243421L2196.496942167406 500.6532424243421L2196.496942167406 518.5004362539139Q2201.2422662792824 509.90513220221385 2209.180984604811 504.29430872402065Q2217.1197029303394 498.7133300515626 2228.5204187211357 498.7133300515626L2228.5204187211357 498.7133300515626Q2239.682376066052 498.7133300515626 2247.979232060402 504.29430872402065Q2256.2462432490156 509.90513220221385 2259.2605686282577 521.7236752733015L2259.2605686282577 521.7236752733015Q2263.5582206541085 511.6062861291128 2272.0341454828676 505.1598080903377Q2280.5100703116277 498.7133300515626 2292.985199108887 498.7133300515626L2292.985199108887 498.7133300515626Q2306.7436545527544 498.7133300515626 2315.8761651076857 507.30863410326276Q2325.008675662617 515.9039381549628 2325.008675662617 535.0344586311428L2325.008675662617 535.0344586311428L2325.008675662617 584.0396296481276L2341.7516116799916 584.0396296481276Z " fill="#3f51b5" transform="matrix(0.3736519202479385,0,0,0.37365192024793853,0,104.42129631299014)"/></g></svg>